<?xml version="1.0" encoding="utf-8"?>
<!-- Generator: Adobe Illustrator 26.0.0, SVG Export Plug-In . SVG Version: 6.00 Build 0)  -->
<svg version="1.1" id="Layer_1" xmlns="http://www.w3.org/2000/svg" xmlns:xlink="http://www.w3.org/1999/xlink" x="0px" y="0px"
	 viewBox="0 0 327.9 104.6" style="enable-background:new 0 0 327.9 104.6;" xml:space="preserve">
<style type="text/css">
	.st0{fill-rule:evenodd;clip-rule:evenodd;fill:#0C4596;}
	.st1{fill-rule:evenodd;clip-rule:evenodd;fill:#E20613;}
</style>
<g>
	<polygon class="st0" points="3.2,5.2 35,5.2 58.8,52.9 58.8,99.8 27,99.8 27,53.3 3.2,5.2 	"/>
	<polygon class="st1" points="81.8,4.8 112.8,4.8 90.6,52.1 58.8,52.1 81.8,4.8 	"/>
</g>
<g>
	<polygon class="st0" points="125.7,29 115.2,29 128.6,55.3 128.6,75.8 138.8,75.8 138.8,55.5 153,28.9 142.5,28.9 133.2,45.7 
		125.7,29 	"/>
	<path class="st0" d="M160.1,58.5h11.5l-5.7-15.9L160.1,58.5L160.1,58.5z M144,75.8h9.1l3.8-9.5h16.2l3.7,9.5h9.8l-17.3-46.9h-8
		L144,75.8L144,75.8z"/>
	<polygon class="st0" points="188.3,28.9 188.3,37.3 205,37.3 187.1,75.8 219.4,75.8 219.4,67.8 201.6,67.8 221.2,28.9 188.3,28.9 	
		"/>
	<path class="st0" d="M234.2,55.8v12.8c0,0,11.1,0,10.5-7.1c0,0,1-4.7-5.8-5.5L234.2,55.8L234.2,55.8z M234.4,37V48c0,0,8,0.6,7.3-6
		c0,0,0.1-4.6-5.4-5H234.4L234.4,37z M224.5,29.2v46.6h14.6c0,0,15.8,1,14.1-15.5c0,0-1-8.5-9.7-9.7c0,0,7.9-6.1,5.7-13.4
		c0,0-1.7-7.7-8.5-8.2L224.5,29.2L224.5,29.2z"/>
	<polygon class="st0" points="260.1,28.9 260.1,76 283.8,76 283.8,68 269.3,68 269.3,55.6 283.1,55.6 283.1,47.1 269.3,47.1 
		269.3,37.3 283.6,37.3 283.6,28.8 260.1,28.9 	"/>
	<polygon class="st0" points="289.9,28.8 289.9,75.8 299.1,75.8 299.1,55.9 313.4,75.9 324.8,75.9 307.9,50.2 324.8,28.6 
		312.9,28.6 299,47.1 299,29 289.9,28.8 	"/>
</g>
</svg>
