<?xml version="1.0" encoding="utf-8"?>
<!-- Generator: Adobe Illustrator 26.0.0, SVG Export Plug-In . SVG Version: 6.00 Build 0)  -->
<svg version="1.1" id="Layer_1" xmlns="http://www.w3.org/2000/svg" xmlns:xlink="http://www.w3.org/1999/xlink" x="0px" y="0px"
	 viewBox="0 0 327.9 104.6" style="enable-background:new 0 0 327.9 104.6;" xml:space="preserve">
<style type="text/css">
	.st0{fill-rule:evenodd;clip-rule:evenodd;fill:#0C4596;}
	.st1{fill-rule:evenodd;clip-rule:evenodd;fill:#E20613;}
	.st2{fill-rule:evenodd;clip-rule:evenodd;fill:#BFC2C5;}
</style>
<g>
	<polygon class="st0" points="3.2,5.4 35,5.4 58.8,53.1 58.8,100 27.1,100 27.1,53.5 3.2,5.4 	"/>
	<polygon class="st1" points="81.9,5 112.9,5 90.6,52.3 58.8,52.3 81.9,5 	"/>
</g>
<g>
	<polygon class="st2" points="125.7,29.2 115.2,29.2 128.6,55.5 128.6,76 138.8,76 138.8,55.7 153,29.1 142.5,29.1 133.3,45.9 
		125.7,29.2 	"/>
	<path class="st2" d="M160.1,58.7h11.5L166,42.7L160.1,58.7L160.1,58.7z M144.1,76h9.1l3.8-9.5h16.2l3.7,9.5h9.8l-17.3-46.9h-8
		L144.1,76L144.1,76z"/>
	<polygon class="st2" points="188.3,29.1 188.3,37.5 205.1,37.5 187.2,76 219.4,76 219.4,68 201.6,68 221.3,29.1 188.3,29.1 	"/>
	<path class="st2" d="M234.2,56v12.8c0,0,11.1,0,10.5-7.1c0,0,1-4.7-5.8-5.5L234.2,56L234.2,56z M234.5,37.2v10.9c0,0,8,0.6,7.3-6
		c0,0,0.1-4.6-5.4-5H234.5L234.5,37.2z M224.5,29.4V76h14.6c0,0,15.8,1,14.1-15.5c0,0-1-8.5-9.7-9.7c0,0,7.9-6.1,5.7-13.4
		c0,0-1.7-7.7-8.5-8.2L224.5,29.4L224.5,29.4z"/>
	<polygon class="st2" points="260.1,29.1 260.1,76.2 283.8,76.2 283.8,68.2 269.3,68.2 269.3,55.8 283.1,55.8 283.1,47.3 
		269.3,47.3 269.3,37.5 283.7,37.5 283.7,29 260.1,29.1 	"/>
	<polygon class="st2" points="290,29 290,76 299.1,76 299.1,56.1 313.4,76.1 324.8,76.1 307.9,50.4 324.8,28.8 312.9,28.8 
		299.1,47.3 299.1,29.2 290,29 	"/>
</g>
</svg>
